<?xml version="1.0" encoding="utf-8" ?>
<svg xmlns="http://www.w3.org/2000/svg" xmlns:xlink="http://www.w3.org/1999/xlink" width="1918" height="1918">
	<path fill="#FEFEFE" transform="scale(2.99721 2.99721)" d="M0 0L640 0L640 640L0 640L0 0Z"/>
	<path fill="#58228E" transform="scale(2.99721 2.99721)" d="M112.884 240.987C113.167 246.327 113.588 251.816 114.667 257.059C118.296 274.694 127.58 291.495 140.954 303.57C153.219 314.643 168.394 323.069 184.853 325.657C189.744 326.426 194.911 326.183 199.724 327.15C199.295 328.939 199.147 330.776 199.103 332.612C199.046 335.036 199.047 337.679 199.591 340.054C201.588 348.763 208.263 354.767 214.164 360.99L207.867 376.932L207.604 376.93C197.598 376.883 186.874 376.902 179.299 384.443C176.24 387.488 173.876 391.356 172.817 395.56C172.101 398.401 172.168 401.523 172.155 404.438C172.138 408.435 172.138 412.432 172.14 416.429C164.01 417.412 155.668 418.006 147.482 417.335C138.624 416.609 129.753 414.354 121.453 411.212C97.76 402.243 78.5315 384.394 68.1207 361.313C58.2679 339.47 57.6177 314.108 66.2675 291.719C74.6636 269.986 91.4122 250.571 112.884 240.987Z"/>
	<path fill="#DC0830" transform="scale(2.99721 2.99721)" d="M203.733 152.475C220.395 153.498 237.299 159.001 250.987 168.674C257.011 172.931 262.516 178.233 267.398 183.755C283.254 201.687 288.851 225.975 287.447 249.355C286.511 264.934 280.19 281.708 270.549 293.978C267.253 298.174 263.408 301.817 259.645 305.582C257.309 303.469 254.941 301.035 252.307 299.308C247.697 296.288 242.04 295.246 236.598 295.514C225.909 296.039 219.93 302.419 213.004 309.661C210.383 312.402 207.58 315.025 205.063 317.858C202.593 320.639 201.002 323.683 199.724 327.15C194.911 326.183 189.744 326.426 184.853 325.657C168.394 323.069 153.219 314.643 140.954 303.57C127.58 291.495 118.296 274.694 114.667 257.059C113.588 251.816 113.167 246.327 112.884 240.987L112.834 239.966C112.79 236.61 113.217 233.161 113.621 229.831C115.974 210.428 124.78 192.299 138.63 178.504C156.316 160.889 178.94 152.387 203.733 152.475Z"/>
	<path fill="#FEFEFE" transform="scale(2.99721 2.99721)" d="M195.399 211.013C200.606 210.506 206.334 211.464 210.91 214.084C217.216 217.695 221.761 223.838 223.555 230.823C225.496 238.383 223.244 245.767 219.438 252.304C221.771 254.301 223.803 256.648 225.938 258.851C229.281 262.299 232.69 265.691 236.1 269.073C241.319 274.25 246.613 279.345 251.809 284.545C253.982 286.719 256.687 288.992 258.465 291.494C259.159 292.47 259.134 293.081 258.906 294.216C257.408 296.016 255.517 296.672 253.394 297.468C250.126 295.597 247.455 292.628 244.795 289.998L212.835 258.325C209.767 260.042 206.699 261.465 203.235 262.196C196.968 263.519 189.692 261.767 184.375 258.31C178.374 254.409 174.44 247.872 173.031 240.933C171.801 234.876 173.208 228.282 176.588 223.16C181.138 216.265 187.431 212.604 195.399 211.013Z"/>
	<path fill="#DC0830" transform="scale(2.99721 2.99721)" d="M307.729 276.708C313.397 276.585 319.065 276.555 324.734 276.535C328.506 276.521 332.752 276.079 336.37 277.28L336.875 277.453L338.151 277.917C348.255 282.443 346.558 293.215 346.542 302.269C346.539 303.904 346.332 305.797 346.994 307.327C347.523 308.549 348.613 309.323 349.773 309.894C353.915 311.931 358.93 312.823 363.264 314.531C366.844 315.942 370.088 318.125 373.642 319.486C374.874 319.958 376.026 320.163 377.334 319.922C379.729 319.481 382.011 316.988 383.695 315.372C387.01 312.19 390.411 308.281 394.724 306.441C398.326 304.903 403.395 304.731 407.031 306.25C411.443 308.094 415.073 312.761 418.437 316.062C421.255 318.827 424.506 321.613 426.929 324.728C428.046 326.163 428.976 327.82 429.67 329.498C431.435 333.766 431.224 339.609 428.594 343.488C426.16 347.078 422.198 350.156 419.162 353.286C417.864 354.624 416.248 356.095 415.589 357.881C415.203 358.926 415.157 360.166 415.386 361.25C416.06 364.437 418.295 368.005 419.545 371.064C421.224 375.171 422.562 379.432 424.301 383.508C425.247 385.724 426.953 387.163 429.192 388.04L429.686 388.224C433.114 389.544 438.613 388.591 442.354 388.685C446.589 388.793 450.546 390.659 453.421 393.766C457.949 398.66 457.825 403.895 457.84 410.111C457.849 413.321 457.888 416.543 457.784 419.75C457.612 425.062 455.321 429.24 451.448 432.803C445.939 437.872 440.209 437.514 433.269 437.3C430.774 437.223 428.528 437.738 426.712 439.579C423.965 442.365 422.875 447.611 421.39 451.243C419.895 454.898 417.392 458.729 417.037 462.685C416.685 466.604 418.711 468.864 421.037 471.64C425.315 476.744 431.073 481.733 430.908 488.906C430.845 491.65 430.113 494.177 428.615 496.486C426.626 499.552 423.198 502.203 420.569 504.781C417.638 507.654 414.844 510.689 411.85 513.494C408.657 516.486 405.452 517.841 401.052 517.634C398.947 517.535 396.979 517.191 395.062 516.264C392.25 514.904 389.867 512.419 387.627 510.284C384.464 507.268 381.29 504.219 378.333 500.998C368.442 507.452 358.173 512.408 346.538 514.767C346.585 518.585 346.629 522.404 346.659 526.223C346.693 530.337 347.117 534.699 345.149 538.466C342.568 543.407 337.86 545.216 332.864 546.687L326.543 547.471C317.918 547.956 304.894 548.346 298.098 541.934C296.53 540.454 295.12 538.332 294.482 536.28C293.589 533.406 293.813 530.107 293.792 527.125C293.762 522.83 293.73 518.55 293.536 514.258C282.188 512.395 271.121 506.845 261.765 500.331C258.829 503.582 255.563 506.594 252.395 509.616C250.32 511.595 248.244 513.877 245.853 515.461L245.415 515.741L244.983 516.029C242.552 517.599 239.605 517.854 236.825 517.21C230.189 515.673 223.932 508.423 219.38 503.617C216.785 500.879 213.984 498.098 211.99 494.879C210.259 492.086 209.314 488.998 209.788 485.71C211.116 476.488 221.324 473.261 223.321 464.522C223.518 463.659 223.619 462.906 223.42 462.031C222.668 458.736 221.061 455.413 219.964 452.209C218.844 448.936 218.061 444.252 216.14 441.419C211.877 435.134 200.656 438.11 194.2 436.574C190.362 435.661 186.815 433.318 184.807 429.871C183.856 428.238 183.118 426.313 182.871 424.439C182.433 421.115 182.747 417.444 182.743 414.078C182.738 409.29 182.014 403.078 183.305 398.488C184.514 394.192 187.909 390.426 192.315 389.312C194.78 388.688 197.538 388.724 200.069 388.595C203.131 388.439 206.191 388.26 209.251 388.086C211.033 387.985 213.332 388.073 214.873 387.059C215.868 386.405 216.685 385.374 217.178 384.301C218.776 380.822 219.594 376.737 220.95 373.125C222.368 369.347 225.147 365.092 225.885 361.218C226.095 360.119 226.08 358.609 225.61 357.577C224.77 355.73 223.133 354.269 221.727 352.859C218.897 350.019 215.521 347.17 213.23 343.882C210.554 340.043 209.259 335.174 210.222 330.519C210.549 328.94 210.953 327.499 211.859 326.145C213.908 323.085 216.859 320.644 219.43 318.034C222.51 314.906 225.53 311.271 229.207 308.822C235.641 304.536 244.263 305.764 249.957 310.704C252.903 313.26 255.749 317.144 259.135 319.032C260.266 319.663 261.857 319.876 263.12 320.145C265.918 319.51 268.214 317.985 270.743 316.719C272.449 315.864 274.256 315.234 276.053 314.603C279.07 313.545 282.129 312.639 285.195 311.738C287.088 311.182 289.291 310.752 290.938 309.659C292.107 308.882 292.718 307.982 293.116 306.636C293.597 305.011 293.442 303.141 293.446 301.456C293.456 297.564 293.122 293.385 293.697 289.54C294.067 287.064 295.043 284.574 296.578 282.579C299.429 278.874 303.209 277.318 307.729 276.708Z"/>
	<path fill="#58228E" transform="scale(2.99721 2.99721)" d="M315.672 345.756C333.115 345.143 349.623 349.882 363.198 361.169C376.693 372.392 385.609 389.306 387.19 406.769C388.84 424.988 383.636 442.223 371.831 456.284C362.908 466.911 350.78 474.96 337.282 478.415C333.182 479.464 328.97 479.917 324.765 480.298C307.37 481.259 289.888 475.985 276.583 464.531C262.96 452.804 253.681 437.043 252.395 418.866C251.13 400.974 256.367 382.85 268.242 369.208C280.6 355.012 296.972 347.071 315.672 345.756Z"/>
	<path fill="#FEFEFE" transform="scale(2.99721 2.99721)" d="M315.417 373.556C324.481 372.555 334.171 374.812 341.817 379.746C350.335 385.242 356.595 394.622 358.722 404.486L358.829 405L359.317 408.527C360.223 419.711 357.718 430.095 350.302 438.748C343.514 446.668 333.909 451.874 323.462 452.609C313.042 453.857 302.071 450.149 293.858 443.825C285.748 437.579 280.741 427.289 279.526 417.258C278.224 406.509 281.543 396.448 288.206 388.049C294.938 379.564 304.803 374.797 315.417 373.556Z"/>
	<path fill="#58228E" transform="scale(2.99721 2.99721)" d="M203.733 152.475C226.867 121.533 264.866 100.445 302.853 94.9463C344.235 88.9568 387.761 99.1085 421.333 124.324C438.056 136.884 453.219 152.935 464.079 170.859C473.755 186.828 480.329 204.405 484.479 222.568C491.882 223.167 499.072 224.124 506.248 226.094C524.429 231.085 542.559 241.834 554.859 256.26C571.681 275.992 580.966 301.278 578.906 327.334C576.748 354.639 563.762 378.423 542.979 395.97C529.113 407.678 509.47 415.654 491.404 417.348C483.918 418.05 476.26 417.684 468.753 417.45C468.755 405.467 470.107 394.217 460.89 385.016C455.074 379.209 448.734 377.255 440.625 377.292L433.368 377.506L427.335 360.659C433.424 353.58 439.8 349.296 441.074 339.396C442.046 331.852 440.298 324.804 435.616 318.815C432.995 315.463 429.502 312.61 426.473 309.606C422.966 306.13 419.682 301.846 415.722 298.901C412.474 296.485 408.076 294.914 404.062 294.442C397.301 293.646 390.883 295.291 385.594 299.631C382.211 302.407 379.345 305.983 375.589 308.253C372.989 307.515 370.611 306.297 368.125 305.267C364.49 303.762 360.807 302.305 357.143 300.87C356.995 290.335 357.559 280.45 349.374 272.594C345.786 269.15 341.166 266.94 336.25 266.236L335.765 266.164C330.694 265.472 325.016 265.924 319.872 265.906C316.43 265.895 312.987 265.887 309.545 265.891C307.282 265.893 304.916 265.767 302.695 266.257C299.072 267.055 295.573 268.844 292.647 271.103C287.15 275.348 283.943 281.284 283.086 288.123C282.571 292.237 282.806 296.552 282.813 300.694L263.579 308.899L259.645 305.582C263.408 301.817 267.253 298.174 270.549 293.978C280.19 281.708 286.511 264.934 287.447 249.355C288.851 225.975 283.254 201.687 267.398 183.755C262.516 178.233 257.011 172.931 250.987 168.674C237.299 159.001 220.395 153.498 203.733 152.475Z"/>
</svg>
